<svg width="80" height="24" xmlns="http://www.w3.org/2000/svg" xml:space="preserve" version="1.1">
 <g>
  <title>Layer 1</title>
  <ellipse id="svg_1" fill="#FF0000" ry="12" rx="12.2" cy="12" cx="12.2" class="st0"/>
  <ellipse id="svg_2" stroke-width="1.2" stroke="#FFFFFF" fill="#FF0000" ry="7.2" rx="7.3" cy="12" cx="12.2" class="st1"/>
  <polygon id="svg_3" fill="#FFFFFF" points="9.7,15.5 16.1,12 9.7,8.5 " class="st2"/>
  <path fill="white" id="svg_4" d="m37.4,9.6c-0.6,2.9 -1,6.3 -1.2,7.8l-0.2,0c-0.2,-1.5 -0.6,-4.9 -1.2,-7.7l-1.5,-7l-4.5,0l0,18.9l2.8,0l0,-15.6l0.3,1.5l2.9,14.1l2.8,0l2.8,-14.1l0.2,-1.5l0,15.5l2.8,0l0,-18.8l-4.6,0c0.1,0 -1.4,6.9 -1.4,6.9z"/>
  <path fill="white" id="svg_5" d="m51,18.7c-0.3,0.5 -0.8,0.9 -1.4,0.9c-0.6,0 -0.9,-0.5 -0.9,-1.7l0,-10.1l-3.2,0l0,10.2c0,2.5 0.9,3.7 2.8,3.7c1.3,0 2.3,-0.6 3.1,-1.9l0.1,0l0.3,1.7l2.5,0l0,-13.7l-3.3,0l0,10.9l0,0l0,0z"/>
  <path fill="white" id="svg_6" d="m60.4,13.2c-1,-0.7 -1.7,-1.2 -1.7,-2.3c0,-0.8 0.4,-1.2 1.2,-1.2c0.9,0 1.2,0.6 1.2,2.7l2.7,-0.1c0.2,-3.3 -0.9,-4.7 -3.9,-4.7c-2.7,0 -4.1,1.2 -4.1,3.6c0,2.2 1.1,3.2 2.9,4.6c1.6,1.2 2.5,1.8 2.5,2.8c0,0.7 -0.5,1.2 -1.3,1.2c-1,0 -1.5,-0.9 -1.4,-2.4l-2.7,0c-0.4,2.9 0.8,4.5 3.9,4.5c2.8,0 4.2,-1.2 4.2,-3.7c0.2,-2.3 -1,-3.2 -3.5,-5z"/>
  <polygon fill="white" id="svg_7" points="68.9,7.8 65.8,7.8 65.8,21.5 68.9,21.5 68.9,7.8 "/>
  <path fill="white" id="svg_8" d="m67.4,2.3c-1.2,0 -1.7,0.4 -1.7,1.9c0,1.5 0.6,1.9 1.7,1.9c1.2,0 1.7,-0.4 1.7,-1.9c0,-1.4 -0.5,-1.9 -1.7,-1.9z"/>
  <path fill="white" id="svg_9" d="m79.2,16.6l-2.8,-0.1c0,2.4 -0.3,3.2 -1.2,3.2c-0.9,0 -1.1,-0.9 -1.1,-3.7l0,-2.7c0,-2.8 0.2,-3.6 1.1,-3.6c0.9,0 1.1,0.8 1.1,3.4l2.8,-0.2c0.2,-2.1 -0.1,-3.6 -0.9,-4.4c-0.6,-0.6 -1.6,-0.9 -2.9,-0.9c-3.1,0 -4.4,1.6 -4.4,6.2l0,1.9c0,4.7 1.1,6.2 4.3,6.2c1.3,0 2.3,-0.3 2.9,-0.9c0.8,-0.9 1.1,-2.3 1.1,-4.4l0,0z"/>
 </g>

</svg>